<?xml version="1.0" encoding="utf-8"?>
<!-- Created by UniConvertor 2.0rc5 (https://sk1project.net/) -->
<svg xmlns="http://www.w3.org/2000/svg" height="1050.0px" width="999.94px" version="1.1" xmlns:xlink="http://www.w3.org/1999/xlink" id="6ef412d2-c819-11ed-aec7-0242ac120003">

<g>
	<g>
		<path style="fill:#231f20;" d="M 499.99,423.52 C 578.47,423.52 642.31,359.68 642.31,281.2 642.31,202.72 578.47,138.88 499.99,138.88 421.51,138.88 357.67,202.73 357.67,281.2 357.67,359.67 421.52,423.52 499.99,423.52 Z M 499.99,188.88 C 550.9,188.88 592.31,230.29 592.31,281.2 592.31,332.11 550.9,373.52 499.99,373.52 449.08,373.52 407.67,332.1 407.67,281.2 407.67,230.3 449.09,188.88 499.99,188.88 Z" />
		<path style="fill:#231f20;" d="M 998.1,976.16 C 997.96,975.6 997.81,975.05 997.64,974.51 L 864.81,557.16 C 864.74,556.92 864.66,556.69 864.57,556.45 858.4,538.88 844.95,523.43 826.7,512.93 808.38,502.39 785.34,496.82 760.08,496.82 L 728.5,496.82 C 764.15,416.2 781.85,343.85 781.19,281.06 781.15,206.0 751.91,135.43 698.83,82.36 645.72,29.25 575.1,0.0 499.99,0.0 424.88,0.0 354.26,29.25 301.15,82.36 248.07,135.44 218.82,206.01 218.79,281.06 218.14,343.86 235.83,416.2 271.48,496.82 L 239.9,496.82 C 214.64,496.82 191.6,502.39 173.28,512.93 155.03,523.42 141.58,538.88 135.41,556.45 135.33,556.68 135.25,556.92 135.17,557.15 L 2.35,974.51 C 2.18,975.05 2.02,975.61 1.89,976.16 -3.46,998.06 3.58,1013.04 10.42,1021.75 29.96,1046.64 70.26,1050.0 107.1,1050.0 L 892.89,1050.0 C 944.13,1050.0 973.93,1041.15 989.51,1021.31 996.33,1012.62 1003.36,997.73 998.1,976.16 Z M 268.8,281.2 C 268.8,153.72 372.51,50.0 500.0,50.0 627.49,50.0 731.2,153.71 731.2,281.2 731.2,281.29 731.2,281.38 731.2,281.47 731.97,352.5 705.58,432.0 667.69,509.14 667.07,510.2 666.52,511.3 666.05,512.45 618.17,609.01 552.57,701.61 500.0,768.92 447.43,701.61 381.84,609.01 333.95,512.45 333.48,511.3 332.94,510.19 332.31,509.13 294.42,431.99 268.03,352.49 268.8,281.47 268.8,281.38 268.8,281.29 268.8,281.2 Z M 892.89,1000.0 L 107.09,1000.0 C 61.97,1000.0 51.7,992.72 50.01,991.16 50.01,990.74 50.04,989.95 50.3,988.7 L 182.69,572.75 C 187.45,559.8 206.91,546.83 239.91,546.83 L 295.35,546.83 C 298.84,553.66 302.45,560.55 306.18,567.49 360.84,669.17 431.16,763.56 480.52,824.83 485.27,830.72 492.42,834.15 499.99,834.15 507.56,834.15 514.71,830.73 519.46,824.83 568.82,763.55 639.13,669.17 693.8,567.49 697.53,560.55 701.14,553.67 704.63,546.83 L 760.07,546.83 C 793.07,546.83 812.53,559.8 817.29,572.74 L 949.67,988.69 C 949.87,989.68 949.92,990.33 949.92,990.7 948.24,992.25 937.56,1000.01 892.89,1000.01 L 892.89,1000.0 Z" />
	</g>
	<path style="fill:none;" d="M -500.03,-475.0 L -500.03,1525.0 1499.97,1525.0 1499.97,-475.0 -500.03,-475.0 Z" />
</g>
</svg>